<svg xmlns="http://www.w3.org/2000/svg" width="67" height="78" viewBox="0 0 67 78"><g transform="translate(0 78) rotate(-90)"><path d="M 71.04334259033203 66.5 L 6.956669807434082 66.5 C 5.688759803771973 66.5 4.554490089416504 65.84378051757813 3.92248010635376 64.74462127685547 C 3.290479898452759 63.64546203613281 3.293960094451904 62.33504486083984 3.93179988861084 61.23925399780273 L 35.97512817382813 6.190454006195068 C 36.60906982421875 5.101393699645996 37.73986053466797 4.4512038230896 39 4.4512038230896 C 40.26013946533203 4.4512038230896 41.39093017578125 5.101393699645996 42.02487182617188 6.190454006195068 L 74.06819152832031 61.23925399780273 C 74.70603942871094 62.33504486083984 74.70951843261719 63.64547348022461 74.07752227783203 64.74463653564453 C 73.44551849365234 65.84379577636719 72.31124114990234 66.5 71.04334259033203 66.5 Z" stroke="none"/><path d="M 39 4.951194763183594 C 37.91987991333008 4.951194763183594 36.95063018798828 5.508506774902344 36.40726089477539 6.441993713378906 L 4.363929748535156 61.49079513549805 C 3.81719970703125 62.43003463745117 3.814216613769531 63.55325317382813 4.355926513671875 64.49539184570313 C 4.897651672363281 65.43752288818359 5.869888305664063 65.99999237060547 6.956657409667969 65.99999237060547 L 71.04332733154297 65.99999237060547 C 72.13011169433594 65.99999237060547 73.10234832763672 65.43752288818359 73.64405822753906 64.49538421630859 C 74.18578338623047 63.55324554443359 74.18279266357422 62.43003463745117 73.63606262207031 61.49079513549805 L 41.59273910522461 6.441993713378906 C 41.04936981201172 5.508506774902344 40.08012008666992 4.951194763183594 39 4.951194763183594 M 39.00000381469727 3.951202392578125 C 40.34281921386719 3.951202392578125 41.68563461303711 4.613777160644531 42.45698928833008 5.938926696777344 L 74.50031280517578 60.98772430419922 C 76.05254364013672 63.65436553955078 74.12883758544922 66.99999237060547 71.04332733154297 66.99999237060547 L 6.956657409667969 66.99999237060547 C 3.871147155761719 66.99999237060547 1.947456359863281 63.65436553955078 3.499679565429688 60.98772430419922 L 35.54301071166992 5.938926696777344 C 36.31436920166016 4.613777160644531 37.65718841552734 3.951202392578125 39.00000381469727 3.951202392578125 Z" stroke="none" fill="#fff"/></g></svg>