<svg height="512pt" viewBox="0 0 512 512.00508" width="512pt" xmlns="http://www.w3.org/2000/svg"><path d="m507.523438 148.910156-138.667969-144c-4.523438-4.714844-11.457031-6.183594-17.492188-3.753906-6.058593 2.453125-10.027343 8.320312-10.027343 14.847656v69.335938h-5.332032c-114.6875 0-208 93.3125-208 208v32c0 7.421875 5.226563 13.609375 12.457032 15.292968 1.171874.277344 2.347656.429688 3.519531.429688 6.058593 0 11.839843-3.542969 14.613281-9.089844 29.996094-60.011718 90.304688-97.300781 157.398438-97.300781h25.34375v69.332031c0 6.527344 3.96875 12.394532 10.027343 14.847656 5.992188 2.414063 12.96875.960938 17.492188-3.753906l138.667969-144c5.972656-6.1875 5.972656-16 0-22.1875zm0 0" fill="#2196f3"/><path d="m453.335938 512.003906h-394.667969c-32.363281 0-58.66406275-26.304687-58.66406275-58.664062v-309.335938c0-32.363281 26.30078175-58.664062 58.66406275-58.664062h74.667969c8.832031 0 16 7.167968 16 16 0 8.832031-7.167969 16-16 16h-74.667969c-14.699219 0-26.664063 11.964844-26.664063 26.664062v309.335938c0 14.695312 11.964844 26.664062 26.664063 26.664062h394.667969c14.699218 0 26.667968-11.96875 26.667968-26.664062v-181.335938c0-8.832031 7.167969-16 16-16 8.832032 0 16 7.167969 16 16v181.335938c0 32.359375-26.304687 58.664062-58.667968 58.664062zm0 0"/><path d="m144.003906 341.0625c-1.195312 0-2.371094-.152344-3.542968-.429688-7.230469-1.683593-12.457032-7.871093-12.457032-15.292968v-32c0-114.6875 93.3125-208 208-208h5.332032v-69.335938c0-6.527344 3.96875-12.394531 10.027343-14.824218 6.035157-2.433594 12.96875-.960938 17.492188 3.730468l138.667969 144c5.972656 6.210938 5.972656 16 0 22.210938l-138.667969 144c-4.523438 4.691406-11.5 6.183594-17.492188 3.730468-6.058593-2.453124-10.027343-8.320312-10.027343-14.847656v-69.332031h-25.34375c-67.113282 0-127.425782 37.289063-157.417969 97.300781-2.753907 5.546875-8.535157 9.089844-14.570313 9.089844zm192-223.722656c-89.601562 0-163.777344 67.304687-174.636718 154.023437 38.71875-43.242187 94.378906-68.691406 154.625-68.691406h41.34375c8.832031 0 16 7.167969 16 16v45.652344l100.457031-104.320313-100.457031-104.320312v45.65625c0 8.832031-7.167969 16-16 16zm0 0"/></svg>